<svg width="80" height="80" xmlns="http://www.w3.org/2000/svg">
 <!-- Created with Method Draw - http://github.com/duopixel/Method-Draw/ -->

 <g>
  <title>background</title>
  <rect fill="none" id="canvas_background" height="82" width="82" y="-1" x="-1"/>
  <g display="none" overflow="visible" y="0" x="0" height="100%" width="100%" id="canvasGrid">
   <rect fill="url(#gridpattern)" stroke-width="0" y="0" x="0" height="100%" width="100%"/>
  </g>
 </g>
 <g>
  <title>Layer 1</title>
  <path id="svg_1" d="m90.987507,135.775697l0,0c0,-14.287517 20.828086,-25.869837 46.520828,-25.869837l21.145842,0l0,0l101.500012,0l190.31247,0c12.338122,0 24.170869,2.725559 32.895237,7.577099c8.724313,4.85154 13.625619,11.431637 13.625619,18.292738l0,64.6746l0,0l0,38.804748l0,0c0,14.287525 -20.828072,25.869837 -46.520842,25.869837l-190.31247,0l-132.597241,65.780983l31.097229,-65.780983l-21.145842,0c-25.692742,0 -46.520828,-11.582312 -46.520828,-25.869837l0,0l0,-38.804748l0,0l-0.000014,-64.6746z" stroke-width="1.5" stroke="#000" fill="#fff"/>
  <rect stroke="#000" id="svg_2" height="38" width="76" y="2" x="2" stroke-width="0" fill="#000000"/>
  <rect id="svg_3" height="38" width="76" y="40" x="2" stroke-width="0" fill="#ff9a27"/>
  <text font-style="normal" font-weight="bold" stroke="null" transform="matrix(0.8289488554000854,0,0,0.7987517714500427,3.899431562051177,12.697505420073867) " xml:space="preserve" text-anchor="start" font-family="Helvetica, Arial, sans-serif" font-size="28" id="svg_4" y="67.744472" x="2.323255" stroke-width="0" fill="#000000">DUMP</text>
  <text font-style="normal" xml:space="preserve" text-anchor="start" font-family="Helvetica, Arial, sans-serif" font-size="28" id="svg_5" y="30.767454" x="11.989373" stroke-width="0" stroke="#000" fill="#ffffff">SQL</text>
 </g>
</svg>